<svg xmlns="http://www.w3.org/2000/svg" viewBox="0 0 292.15 222.89" height="80"><path d="M164.1 158.06l1.34.13zM118.65 124.11c10.18 14.36 14.17 18.51 33.12 18.51 31 0 64.81-13 68.94-50.95.83-7.63-1.54-15-4.33-21.66a56.18 56.18 0 10-58.69 87 56.32 56.32 0 01-39.04-32.9zM159.84 157.42q1.72.32 3.48.54-1.75-.22-3.48-.54zM170.13 158.41zM167.88 158.35l-1.12-.06zM157.79 157c.66.15 1.32.3 2 .42-.68-.14-1.34-.28-2-.42z" fill="#1b6e83"></path><circle cx="197.83" cy="64.38" r="33.38" fill="#1b6e83"></circle><path d="M197.83 31a33.31 33.31 0 00-25.24 11.54h.12a1.46 1.46 0 01.44-.06l-.44.06a1 1 0 00-.18.08l-.62.74a2.1 2.1 0 00-.08.43c14.45-2.62 28.9-1.31 38.09 9.2 7.11 8 12.18 18.67 16.47 28.67a33.84 33.84 0 004.82-17.27A33.38 33.38 0 00197.83 31z" fill="#1b6e83"></path><path fill="#fff" d="M86.25 68.27L49.64 49.22l7.48-4.68 32.24 17.35-3.11 6.38z"></path><path d="M34.87 41s7.31 4.17 18.29 10.16L60 54.69l3.38-4.13a1.5 1.5 0 012.1-.2 1.48 1.48 0 01.2 2.09l-3 3.64 3 1.52 2.61-3.18a1.49 1.49 0 112.3 1.89L68.35 59l2.54 1.31 3.62-4.41a1.49 1.49 0 012.3 1.89l-3.22 3.92 2.62 1.35 2-2.44a1.49 1.49 0 112.3 1.88l-1.61 2 2.87 1.5 3.44-4.19a1.49 1.49 0 112.3 1.88l-3 3.71 17.3 9c19.83 9.54 38.4 17.28 46.49 17.28 21.07 0 38.16-11.77 38.16-26.3S169.33 41 148.26 41zm20 8.23a1 1 0 010-.29 1.47 1.47 0 01.08-.28 1 1 0 01.14-.25 1.41 1.41 0 01.18-.23 1.5 1.5 0 011.35-.41l.27.09a1.05 1.05 0 01.26.13 2.11 2.11 0 01.23.19 1.41 1.41 0 01.18.23 1 1 0 01.14.25 1 1 0 01.08.28 1.42 1.42 0 010 .58 1 1 0 01-.08.28 1 1 0 01-.14.25 1.41 1.41 0 01-.18.23 1.3 1.3 0 01-.23.18.82.82 0 01-.26.14l-.27.09h-.29a1.5 1.5 0 01-1.06-.44 1.41 1.41 0 01-.18-.23 1 1 0 01-.14-.25 1.47 1.47 0 01-.08-.28 1 1 0 01.03-.27z" fill="#1b6e83"></path><path d="M205.14 41.09a29.3 29.3 0 00-34.24 3.6 25.26 25.26 0 012.35 2.63c.95 0 1.91-.07 2.86-.07a59.16 59.16 0 0143.68 19.19 29.3 29.3 0 00-14.65-25.35z" fill="#cf5c3d"></path><path d="M219.79 66.44c2.27 17.25.85 22.31.85 22.31l22.07 40.89a24.65 24.65 0 002.56-4.53z" fill="#f2b707"></path><path d="M245.27 125.11a24.65 24.65 0 01-2.56 4.53l14.57 25.88z" fill="#826515"></path><circle cx="219.79" cy="66.88" r="3.2" fill="#fff"></circle><path d="M154.85 92.63a11.59 11.59 0 01-1.89-.18c-4.34-.72-11.37-3.6-20.89-8.56C107.74 71.23 73.73 48.44 64.18 42h90.67c9.07 0 17.62 3.31 23.45 9.07a25.52 25.52 0 012.26 2.54 22.25 22.25 0 014.88 13.08v1.3c-.44 13.57-14.13 24.64-30.59 24.64z" fill="#f2b707"></path><path d="M154.85 42.92c8.82 0 17.12 3.2 22.77 8.79a22.87 22.87 0 012.18 2.45 21.28 21.28 0 014.68 12.55v1.2c-.4 13.1-13.69 23.76-29.63 23.76a10.7 10.7 0 01-1.73-.17c-4.24-.7-11.12-3.5-20.61-8.5-22.43-11.67-53.11-32-65.18-40.12h87.52m0-1.93h-93.8s41.77 28.77 70.57 43.76c8.78 4.57 16.36 7.85 21.18 8.66a13.24 13.24 0 002 .19C172 93.6 186 82.18 186.41 68v-.68-.68A23.17 23.17 0 00181.32 53a25.23 25.23 0 00-2.32-2.67c-5.82-5.72-14.47-9.33-24.15-9.33z" fill="#f2b707"></path><path fill="#fff" d="M182.92 180.7l-20.82-14.85 5.36-3.94 20 13.62-4.54 5.17z"></path><path d="M121.73 131.22c2.91 5.68 15 15.93 28.85 26.41l18.29 13 3.33-3.33a1.49 1.49 0 112.11 2.1l-3 3 2.38 1.69 1.73-1.73a1.49 1.49 0 112.11 2.11l-1.38 1.38 2.6 1.85 3.52-3.53a1.49 1.49 0 012.11 2.11l-3.18 3.17 4.52 3.22c8.15 5.56 13.7 9.19 13.7 9.19l-40.77-79.56c-7.58-14.79-22-22.55-32.19-17.33s-12.31 21.46-4.73 36.25zm44.24 35a1.33 1.33 0 010-.28 1.31 1.31 0 01.09-.28 1.26 1.26 0 01.13-.26 1.37 1.37 0 01.19-.22l.22-.19a1.65 1.65 0 01.26-.14.9.9 0 01.28-.08 1.42 1.42 0 01.58 0 .9.9 0 01.28.08 1.65 1.65 0 01.26.14l.22.19a1.45 1.45 0 01.44 1 1.5 1.5 0 01-.44 1.06 1.5 1.5 0 01-2.1 0 1.45 1.45 0 01-.19-.23 1.19 1.19 0 01-.13-.25 1.52 1.52 0 01-.09-.28 1.45 1.45 0 01.03-.3z" fill="#1b6e83"></path><path d="M187.73 171.17c-8.69-4.77-36-20-53.25-32.25-6.89-4.88-11.42-8.76-13.48-11.54a8.33 8.33 0 01-.79-1.23c-5.87-11.45-3.07-25 6.25-30.08l.44-.24.4-.2a16.85 16.85 0 017.3-1.63 19 19 0 013.57.34 19.43 19.43 0 012.57.67 26.18 26.18 0 0114.68 13.1z" fill="#cf5c3d"></path><path d="M134.6 95a18.76 18.76 0 015.84 1 25.2 25.2 0 0114.12 12.62l2.37 4.63 28.5 55.62c-10.72-5.94-34.75-19.55-50.39-30.66-6.81-4.83-11.27-8.64-13.27-11.33a7.83 7.83 0 01-.7-1.1c-5.63-11-3-23.91 5.85-28.79l.42-.23.43-.21A15.72 15.72 0 01134.6 95m0-1.93a17.68 17.68 0 00-7.66 1.71l-.48.23-.47.25c-9.82 5.42-12.81 19.32-6.64 31.37a10.57 10.57 0 00.87 1.37c2.3 3.09 7.33 7.23 13.7 11.75 20.88 14.83 56.1 33.8 56.1 33.8l-31.37-61.25-2.37-4.63a27.05 27.05 0 00-15.23-13.57 19.16 19.16 0 00-2.7-.7 19.86 19.86 0 00-3.75-.4z" fill="#cf5c3d"></path><path d="M91.43 103.3a.86.86 0 00.59-.24l23.67-23.67a.85.85 0 000-1.18.83.83 0 00-1.18 0l-23.67 23.67a.83.83 0 00.59 1.42zM91.29 115.4a.82.82 0 00.59-.24l7.32-7.32a.83.83 0 10-1.2-1.17L90.71 114a.83.83 0 000 1.18.82.82 0 00.58.22zM102.07 104.63a.86.86 0 00.59-.24l9.3-9.31a.83.83 0 000-1.18.82.82 0 00-1.17 0l-9.31 9.31a.83.83 0 00.59 1.42zM86.91 131a.86.86 0 00.59-.24l23.4-23.41a.83.83 0 000-1.18.85.85 0 00-1.18 0l-23.4 23.41a.83.83 0 00.59 1.42zM97.94 131.89a.82.82 0 00.59-.24l6.65-6.65a.83.83 0 000-1.18.85.85 0 00-1.18 0l-6.65 6.65a.85.85 0 000 1.18.86.86 0 00.59.24zM109 120.85a.84.84 0 00.59-.24l19.22-19.22a.83.83 0 00-1.18-1.17l-19.22 19.21a.85.85 0 000 1.18.86.86 0 00.59.24zM91.69 149.58a.79.79 0 00.59-.25l37-37a.83.83 0 00-1.18-1.18l-37 37a.84.84 0 00.59 1.42zM110.58 142.66a.86.86 0 00.59-.24l16.49-16.49a.83.83 0 00-1.18-1.18L110 141.24a.83.83 0 00.59 1.42zM100.2 164.21a.79.79 0 00.59-.25l7-7.05a.82.82 0 000-1.17.83.83 0 00-1.18 0l-7 7a.83.83 0 000 1.18.79.79 0 00.59.29zM111.64 152.77a.84.84 0 00.59-.24l16.36-16.36a.83.83 0 10-1.18-1.18l-16.36 16.36a.83.83 0 00.59 1.42zM117.49 158.62a.82.82 0 00.59-.24l8.51-8.51a.83.83 0 00-1.18-1.18l-8.51 8.51a.85.85 0 000 1.18.86.86 0 00.59.24zM115.3 172.25a.86.86 0 00.59-.24L135 152.92a.82.82 0 000-1.17.83.83 0 00-1.18 0l-19.08 19.08a.83.83 0 00.59 1.42z" fill="#1b6e83"></path></svg>