<svg xmlns="http://www.w3.org/2000/svg" viewBox="0 0 340.82 94.39" height="80"><path d="M251.87 60.7l-15.19-9.64c-1.51-.92-2.26-1.73-2.26-3.08v-.06c0-1.4.75-2.16 2.26-3.08l15.19-9.63a2.7 2.7 0 012.91 4.54l-13.31 8.17 13.31 8.23a2.7 2.7 0 01-2.91 4.55z" fill="#1b6e83" opacity=".22"></path><path d="M263.7 62.66l7.89-35A1.89 1.89 0 01274 26.2l2.94.66a1.89 1.89 0 011.51 2.38l-7.9 35a1.88 1.88 0 01-2.38 1.5L265.2 65a1.89 1.89 0 01-1.5-2.34z" fill="#1b6e83"></path><path d="M286.53 59.88a2.56 2.56 0 01.81-3.73l13.3-8.23-13.3-8.17a2.7 2.7 0 012.91-4.54l15.19 9.63c1.51.92 2.26 1.73 2.26 3.08V48c0 1.41-.75 2.16-2.26 3.08l-15.19 9.62a2.55 2.55 0 01-3.72-.82z" fill="#1b6e83" opacity=".22"></path><path d="M90.1 56v-1.4a1.44 1.44 0 011.52-1.6h4.2a1.43 1.43 0 011.52 1.58v1.34c0 4.2 2.07 5.84 7.91 5.84s8-1.58 8-6.14v-1.27c0-3-1.58-3.83-4.75-4.5l-8.21-1.71C94.23 46.87 90.4 45 90.4 37.31V36.1c0-8.22 5.11-12.48 15-12.48 10.4 0 14.91 3.47 14.91 11.5v1.22a1.44 1.44 0 01-1.55 1.66h-4.14a1.47 1.47 0 01-1.62-1.6v-1.22c0-4.07-2-5.72-7.61-5.72s-7.57 1.54-7.57 6.09v1.15c0 3 1.59 3.84 4.69 4.51l8.21 1.7c6.09 1.28 10 3.23 10 10.83V55c0 8.21-5.29 12.53-15.39 12.53C94.66 67.55 90.1 64.09 90.1 56zM136.22 64.75V30.5h-10.28a1.86 1.86 0 01-2.07-2.07v-2.07a1.86 1.86 0 012.07-2.07H154a1.86 1.86 0 012.07 2.07v2.07A1.86 1.86 0 01154 30.5h-10.3v34.25a2 2 0 01-2.12 2.13h-3.23a2 2 0 01-2.13-2.13zM155.15 64.94a5.79 5.79 0 01.36-1.71l11.2-35.59c.85-2.68 1.88-3.53 4.26-3.53h4.13c2.38 0 3.41.85 4.26 3.53l11.2 35.59a5.87 5.87 0 01.37 1.71c0 1.15-.73 1.94-2.26 1.94h-2.61c-1.58 0-2.19-.54-2.74-2.31l-3-9.85h-14.83l-3 9.85c-.55 1.77-1.16 2.31-2.74 2.31h-2.35c-1.52 0-2.25-.79-2.25-1.94zm23.3-16.55L172.91 30l-5.53 18.44zM194 64.94a5.79 5.79 0 01.36-1.71l11.2-35.59c.85-2.68 1.89-3.53 4.26-3.53h4.14c2.37 0 3.4.85 4.26 3.53l11.19 35.59a5.55 5.55 0 01.37 1.71c0 1.15-.73 1.94-2.25 1.94h-2.62c-1.58 0-2.19-.54-2.74-2.31l-3-9.85h-14.86l-3 9.85c-.55 1.77-1.15 2.31-2.74 2.31h-2.37c-1.5 0-2.2-.79-2.2-1.94zm23.3-16.55L211.74 30l-5.54 18.39zM241.19 64.75V30.5h-10.28a1.86 1.86 0 01-2.07-2.07v-2.07a1.86 1.86 0 012.07-2.07h28a1.86 1.86 0 012.09 2.07v2.07a1.86 1.86 0 01-2 2.07h-10.33v34.25a2 2 0 01-2.13 2.13h-3.22a2 2 0 01-2.13-2.13zM292.57 52.4V38.77c0-9.67 5.72-15.15 15.94-15.15C319 23.62 324 28.06 324 37.37v1.16a1.44 1.44 0 01-1.52 1.64h-4.26a1.43 1.43 0 01-1.52-1.58v-1.22c0-5.47-2.37-7.72-8.22-7.72-5.47 0-8.33 2.86-8.33 8.45v15c0 5.6 2.86 8.46 8.33 8.46 5.85 0 8.22-2.25 8.22-7.73v-1.67a1.43 1.43 0 011.52-1.58h4.26a1.44 1.44 0 011.52 1.64v1.58c0 9.31-5 13.75-15.52 13.75-10.19 0-15.91-5.47-15.91-15.15zM63.24 64h.48zM46.9 51.74c3.66 5.17 5.1 6.66 11.9 6.66 11.16 0 23.3-4.67 24.78-18.32A15.89 15.89 0 0082 32.3a20.19 20.19 0 10-21.1 31.25 20.23 20.23 0 01-14-11.81zM61.7 63.72zM65.4 64.07zM64.59 64.05h-.4zM61 63.56c.23.06.47.11.71.15a5.14 5.14 0 01-.71-.15z" fill="#1b6e83"></path><circle cx="75.36" cy="30.28" r="12" fill="#1b6e83"></circle><path d="M75.36 18.28a12 12 0 00-9.07 4.15h.16-.22l-.23.27a.69.69 0 000 .15c5.19-.94 10.38-.47 13.69 3.31 2.55 2.87 4.37 6.71 5.92 10.31a12.29 12.29 0 001.73-6.21 12 12 0 00-11.98-11.98z" fill="#1b6e83"></path><path fill="#fff" d="M35.26 31.68L22.1 24.83l2.68-1.69 11.59 6.24-1.11 2.3z"></path><path d="M16.79 21.87s2.62 1.5 6.57 3.65l2.46 1.27L27 25.31a.54.54 0 01.76-.07.53.53 0 01.07.75l-1.04 1.31 1.06.54.94-1.14a.53.53 0 11.82.68l-.79 1 .91.47L31 27.23a.54.54 0 01.75-.07.53.53 0 01.08.75l-1.13 1.41.94.49.73-.88a.53.53 0 11.82.68l-.57.7 1 .53 1.24-1.51a.54.54 0 01.83.68l-1.1 1.33 6.22 3.22C48 38 54.63 40.78 57.54 40.78c7.58 0 13.72-4.23 13.72-9.46s-6.14-9.45-13.72-9.45zm7.19 3V24.66a.41.41 0 00.05-.09l.07-.08a.56.56 0 01.48-.15h.1l.1.05.08.07.06.08a.41.41 0 01.05.09.22.22 0 010 .1.41.41 0 010 .11.34.34 0 010 .1.17.17 0 010 .1.26.26 0 01-.05.09l-.06.09-.08.06a.31.31 0 01-.1.05.29.29 0 01-.1 0h-.1a.54.54 0 01-.38-.15l-.07-.09L24 25v-.1-.07z" fill="#1b6e83"></path><path d="M78 21.91a10.54 10.54 0 00-12.32 1.29 8.48 8.48 0 01.85.95h1A21.26 21.26 0 0183.25 31 10.53 10.53 0 0078 21.91z" fill="#cf5c3d"></path><path d="M83.25 31c.82 6.2.31 8 .31 8l7.93 14.69a8.15 8.15 0 00.92-1.63z" fill="#f2b707"></path><path d="M92.41 52.1a8.15 8.15 0 01-.92 1.63L96.73 63z" fill="#826515"></path><circle cx="83.25" cy="31.17" r="1.15" fill="#fff"></circle><path d="M71.25 31.08a8.25 8.25 0 00-1.82-4.9 8.48 8.48 0 00-.85-.95 12.31 12.31 0 00-8.67-3.36H26.2s15 10.34 25.36 15.73a30.92 30.92 0 007.62 3.11 5 5 0 00.73.07c6.17 0 11.19-4.1 11.34-9.21a2 2 0 000-.25 1.93 1.93 0 000-.24z" fill="#f2b707"></path><path fill="#fff" d="M70 72.09l-7.48-5.34 1.92-1.42 7.19 4.9L70 72.09z"></path><path d="M48 54.3c1 2 5.4 5.73 10.37 9.49L65 68.48l1.2-1.2a.54.54 0 01.76 0 .56.56 0 010 .76l-1.08 1.07.86.61.62-.62a.54.54 0 01.76 0 .56.56 0 010 .76l-.5.49.93.67 1.27-1.27a.54.54 0 11.76.76l-1.14 1.14L71 72.81c2.93 2 4.93 3.3 4.93 3.3L61.28 47.5c-2.73-5.32-7.91-8.1-11.57-6.23S45.28 49 48 54.3zm15.9 12.57a.34.34 0 010-.1v-.1a.31.31 0 010-.1l.06-.08.09-.06.09-.05a.17.17 0 01.1 0 .37.37 0 01.21 0 .19.19 0 01.1 0l.09.05.08.06a.53.53 0 010 .76.54.54 0 01-.38.15.55.55 0 01-.38-.15l.04-.08a.31.31 0 010-.1v-.1a.31.31 0 01-.09-.1z" fill="#1b6e83"></path><path d="M61.28 47.5l-.85-1.66A9.77 9.77 0 0055 41a6.58 6.58 0 00-1-.25 6.86 6.86 0 00-1.35-.13 6.3 6.3 0 00-2.75.61l-.17.08-.17.09c-3.53 2-4.61 7-2.39 11.28a3.69 3.69 0 00.32.49 24 24 0 004.92 4.22c7.5 5.34 20.16 12.15 20.16 12.15z" fill="#cf5c3d"></path><path d="M38.36 50.19a.27.27 0 00.21-.09l8.51-8.5a.3.3 0 000-.43.29.29 0 00-.42 0l-8.51 8.51a.29.29 0 000 .42.3.3 0 00.21.09zM38.31 54.54a.31.31 0 00.22-.09l2.63-2.63a.31.31 0 000-.42.3.3 0 00-.43 0L38.1 54a.31.31 0 000 .42.3.3 0 00.21.12zM42.19 50.67a.3.3 0 00.21-.09l3.34-3.34a.3.3 0 000-.43.31.31 0 00-.42 0L42 50.16a.3.3 0 00.22.51zM36.74 60.13a.34.34 0 00.21-.08l8.41-8.42a.3.3 0 00-.42-.42l-8.41 8.41a.3.3 0 00.21.51zM40.7 60.47a.31.31 0 00.22-.09L43.31 58a.31.31 0 000-.42.3.3 0 00-.43 0L40.49 60a.31.31 0 000 .42.3.3 0 00.21.05zM44.67 56.5a.27.27 0 00.21-.09l6.91-6.9a.3.3 0 000-.43.31.31 0 00-.42 0L44.46 56a.29.29 0 000 .42.3.3 0 00.21.08zM38.46 66.83a.3.3 0 00.21-.09L52 53.45a.31.31 0 000-.45.3.3 0 00-.43 0L38.25 66.31a.3.3 0 000 .43.27.27 0 00.21.09zM45.25 64.34a.3.3 0 00.21-.09l5.92-5.92a.3.3 0 000-.43.29.29 0 00-.42 0L45 63.83a.3.3 0 00.22.51zM41.52 72.08a.34.34 0 00.21-.08l2.53-2.54a.3.3 0 00-.42-.42l-2.53 2.53a.3.3 0 00.21.51zM45.63 68a.3.3 0 00.21-.09L51.72 62a.3.3 0 000-.43.31.31 0 00-.42 0l-5.88 5.88a.29.29 0 000 .42.27.27 0 00.21.13zM47.73 70.08a.29.29 0 00.21-.09L51 66.93a.3.3 0 10-.42-.42l-3.06 3a.3.3 0 000 .43.29.29 0 00.21.14zM46.94 75a.27.27 0 00.21-.09L54 68a.3.3 0 000-.43.31.31 0 00-.42 0l-6.86 6.86a.3.3 0 000 .43.3.3 0 00.22.14z" fill="#1b6e83"></path></svg>